<svg clip-rule="evenodd" fill-rule="evenodd" height="1000" stroke-linejoin="round" stroke-miterlimit="1.41421" viewBox="0 0 999.99999 1000" width="1000" xmlns="http://www.w3.org/2000/svg"><g fill="#a6c1ee"><path d="m901.52135 500.00007a401.52151 401.52151 0 0 1 -401.52152 401.52145 401.52151 401.52151 0 0 1 -401.52146-401.52145 401.52151 401.52151 0 0 1 401.52146-401.521529 401.52151 401.52151 0 0 1 401.52152 401.521529zm-7.55719-38.77565 62.61683 38.77565-62.61683 38.77565 53.80012 50.29139-68.91458 25.82048 43.0041 59.82781-72.78305 11.87563 30.58866 67.11518-73.68275-2.60903 16.91378 71.79343-71.79343-16.91371 2.60903 73.68275-67.11518-30.58873-11.87563 72.78312-59.82788-43.00409-25.82042 68.9145-50.29145-53.80012-38.77565 62.61683-38.77566-62.61683-50.29138 53.80012-25.82049-68.9145-59.82781 43.00409-11.87563-72.78312-67.11518 30.58873 2.60904-73.68275-71.79344 16.91371 16.91371-71.79343-73.68275 2.60903 30.58873-67.11518-72.78312-11.87563 43.0041-59.82781-68.914504-25.82048 53.800114-50.29139-62.616827-38.77565 62.616827-38.77565-53.800114-50.29146 68.914504-25.82041-43.0041-59.82789 72.78312-11.87563-30.58873-67.11518 73.68275 2.60904-16.91371-71.79344 71.79344 16.91378-2.60904-73.68275 67.11518 30.58867 11.87563-72.783057 59.82781 43.004027 25.82049-68.914503 50.29138 53.800113 38.77566-62.616826 38.77565 62.616826 50.29145-53.800113 25.82042 68.914503 59.82788-43.004027 11.87563 72.783057 67.11518-30.58867-2.60903 73.68275 71.79343-16.91378-16.91378 71.79344 73.68275-2.60904-30.58866 67.11518 72.78305 11.87563-43.0041 59.82789 68.91458 25.82041z" fill-rule="evenodd" stroke="#a6c1ee" stroke-linecap="round" stroke-linejoin="round" stroke-width="26.99"/><path d="m500 74.729031c-234.45287 0-425.271009 190.908049-425.271009 425.270999 0 234.36275 190.908129 425.27094 425.271009 425.27094 234.36289 0 425.27101-190.90819 425.27101-425.27094 0-234.36295-190.90812-425.270999-425.27101-425.270999zm-.63984 37.782969c15.12707.3869 27.18695 12.80504 27.17869 27.9859-.27076 37.03333-55.68701 37.03333-55.95784 0-.007-15.77289 13.01274-28.43657 28.77915-27.9859zm-63.23608 46.0633 43.08511 45.17257c9.71634 10.16623 25.82155 10.61355 35.98778.80715l48.2203-45.97972c99.41546 18.61891 185.61567 80.00956 235.71582 167.87337l-33.00966 74.49445c-5.66788 12.86525.16744 27.98939 12.9422 33.74726l63.52835 28.15285c1.96727 19.8562 4.09848 40.11775.70967 59.74309-10.80849 62.59453-33.76008 124.04461-66.03329 178.75604-8.25325 13.99138-20.36907 25.3624-31.8407 36.89232l-59.11679-12.69175c-13.76494-2.96893-27.341 5.85719-30.30992 19.62214l-14.04162 65.49048c-91.32594 41.3698-196.14841 40.87695-287.08125-1.34986l-14.04162-65.49049c-2.96885-13.76495-16.46154-22.59106-30.22642-19.62214l-57.85043 12.42733c-10.73382-11.07711-21.42602-22.38728-29.8646-35.27803-22.3808-34.18903-43.13712-70.64828-54.06517-110.02302-11.75921-42.36952-15.94697-87.31709-11.1609-131.44026l60.27185-26.81695c12.86525-5.75772 18.71411-20.78454 12.95617-33.64979l-12.41344-27.97193s3.49911-75.66911 25.00778-104.17815c44.40299-58.85465 118.21471-94.62939 192.63071-108.68696zm-270.35372 207.10368c15.13597.44105 27.17462 12.84344 27.16479 27.9859-.26862 37.03589-55.68957 37.03589-55.95784 0-.007-15.77852 13.02122-28.44462 28.79305-27.9859zm667.0961 1.26643c15.13597.43321 27.18068 12.82969 27.17869 27.97194-.26791 37.03589-55.68958 37.03589-55.95784 0-.002-15.76741 13.01822-28.42247 28.77915-27.97194zm-540.69356 392.7066c15.13063.44105 27.16707 12.83496 27.16479 27.97193-.26861 37.03597-55.68957 37.03597-55.95783 0-.002-15.77296 13.0267-28.43044 28.79304-27.97193zm414.29094 1.25246c15.14146.43393 27.18831 12.83824 27.17869 27.9859-.27432 37.02941-55.68316 37.02941-55.95777 0-.007-15.77282 13.01267-28.43657 28.77908-27.9859z" stroke-width="8.9967"/><g transform="matrix(1.0295205 0 0 1.0295205 236.4431 236.44224)"><path d="m392.04 171.636c-3.223-5.574-10.356-7.482-15.895-4.259l-39.005 22.516c-16.908-20.713-41.553-34.828-69.504-37.935v-35.596c0-6.435-5.201-11.636-11.636-11.636s-11.636 5.201-11.636 11.636v35.596c-23.575 2.595-45.405 12.975-62.417 29.987-2.537 2.537-4.911 5.178-7.145 7.913l-38.947-22.481c-5.574-3.212-12.684-1.315-15.895 4.259-3.212 5.574-1.303 12.684 4.259 15.895l38.016 21.946c-7.098 14.289-10.95 30.092-10.95 46.511 0 6.435 5.213 11.636 11.636 11.636h46.825c1.059 23.017 5.248 45.312 12.439 62.348-15.593-7.133-28.881-19.014-37.469-34.525-1.396-2.525-3.665-4.433-6.4-5.364l-4.189-1.443c-3.165-1.117-6.691-.756-9.6.919l-40.308 23.273c-5.574 3.212-7.482 10.333-4.259 15.895 3.212 5.574 10.333 7.471 15.895 4.259l32.919-19.014c17.164 25.798 44.916 42.589 75.59 46.022v35.642c0 6.435 5.201 11.636 11.636 11.636s11.636-5.201 11.636-11.636v-35.596c31.476-3.503 58.775-20.98 75.532-46.092l32.977 19.049c1.827 1.059 3.828 1.559 5.807 1.559 4.026 0 7.936-2.083 10.089-5.818 3.212-5.574 1.303-12.684-4.259-15.895l-34.001-19.631c4.422-11.59 6.947-24.099 6.947-37.213 0-16.71-4.026-32.454-11.02-46.487l38.074-21.981c5.573-3.211 7.481-10.321 4.258-15.895zm-136.041 165.819c-6.237 0-20.783-24.413-22.97-69.83h45.94c-2.187 45.416-16.733 69.83-22.97 69.83zm-22.982-93.103c.57-11.439 1.955-22.481 4.119-32.442 1.361-6.284-2.641-12.474-8.913-13.836-6.26-1.373-12.474 2.641-13.836 8.913-2.49 11.52-4.049 24.262-4.643 37.376h-34.362c5.655-39.424 39.645-69.818 80.617-69.818 6.237 0 20.783 24.401 22.97 69.807zm56.774 85.667c7.203-17.036 11.404-39.354 12.463-62.394h11.927v-23.273h-11.927c-1.059-23.028-5.26-45.335-12.463-62.371 28.067 12.87 47.662 41.169 47.662 74.019.001 32.849-19.595 61.149-47.662 74.019z"/><path d="m131.897 116.364c1.932 0 3.887-.477 5.69-1.501l95.569-53.76c6.144 5.353 14.068 8.716 22.842 8.716 19.247 0 34.909-15.663 34.909-34.909.001-19.247-15.661-34.91-34.908-34.91s-34.909 15.663-34.909 34.909c0 2.036.268 4.015.605 5.958l-95.511 53.725c-5.597 3.154-7.587 10.24-4.433 15.837 2.129 3.794 6.074 5.935 10.146 5.935zm124.102-93.091c6.423 0 11.636 5.213 11.636 11.636s-5.213 11.636-11.636 11.636-11.636-5.213-11.636-11.636 5.213-11.636 11.636-11.636z"/><path d="m313.727 77.068 94.359 55.889c-1.571 7.994-.512 16.535 3.875 24.122 4.655 8.076 12.183 13.859 21.19 16.268 3.014.803 6.063 1.21 9.088 1.21 6.051 0 12.02-1.583 17.396-4.678 16.675-9.635 22.412-31.023 12.788-47.697-9.635-16.663-31.011-22.423-47.686-12.788-.012 0-.012 0-.023 0-1.757 1.024-3.328 2.234-4.841 3.491l-94.289-55.843c-5.551-3.281-12.684-1.443-15.942 4.084-3.269 5.539-1.442 12.672 4.085 15.942zm122.636 52.491c5.574-3.212 12.707-1.28 15.895 4.259 3.212 5.562 1.292 12.695-4.259 15.895-2.7 1.548-5.841 1.967-8.832 1.164-3.002-.791-5.504-2.723-7.052-5.422-3.223-5.563-1.314-12.684 4.248-15.896z"/><path d="m198.283 434.932-94.359-55.901c1.571-7.994.512-16.535-3.863-24.122-9.635-16.663-30.999-22.388-47.709-12.788-16.663 9.635-22.388 31.034-12.765 47.686 4.655 8.076 12.183 13.859 21.19 16.268 3.014.803 6.063 1.21 9.088 1.21 6.063 0 12.02-1.583 17.396-4.678 1.769-1.024 3.34-2.234 4.852-3.503l94.289 55.855c1.862 1.105 3.91 1.629 5.923 1.629 3.98 0 7.854-2.036 10.019-5.702 3.293-5.551 1.466-12.684-4.061-15.954zm-122.647-52.491c-2.7 1.559-5.853 1.955-8.832 1.164-3.002-.791-5.504-2.723-7.052-5.423-3.212-5.562-1.292-12.695 4.236-15.895 1.827-1.059 3.828-1.559 5.807-1.559 4.026 0 7.959 2.095 10.1 5.818 3.223 5.562 1.303 12.695-4.259 15.895z"/><path d="m374.422 397.138-95.581 53.772c-6.144-5.364-14.068-8.727-22.842-8.727-19.247 0-34.909 15.663-34.909 34.909 0 19.247 15.663 34.909 34.909 34.909s34.909-15.663 34.909-34.909c0-2.036-.268-4.003-.605-5.946l95.523-53.737c5.597-3.154 7.587-10.24 4.433-15.837-3.13-5.61-10.228-7.623-15.837-4.434zm-118.423 91.589c-6.423 0-11.636-5.213-11.636-11.636s5.213-11.636 11.636-11.636 11.636 5.213 11.636 11.636c.001 6.423-5.213 11.636-11.636 11.636z"/><path d="m58.181 172.404v130.141c0 6.435 5.201 11.636 11.636 11.636s11.636-5.201 11.636-11.636v-130.141c13.51-4.817 23.273-17.617 23.273-32.768 0-19.247-15.663-34.909-34.909-34.909-19.247 0-34.909 15.663-34.909 34.909 0 15.151 9.763 27.951 23.273 32.768zm11.636-44.404c6.423 0 11.636 5.213 11.636 11.636s-5.213 11.636-11.636 11.636-11.636-5.213-11.636-11.636 5.213-11.636 11.636-11.636z"/><path d="m453.817 339.596v-130.141c0-6.435-5.201-11.636-11.636-11.636s-11.636 5.201-11.636 11.636v130.141c-13.51 4.817-23.273 17.617-23.273 32.768 0 19.247 15.663 34.909 34.909 34.909s34.909-15.663 34.909-34.909c0-15.151-9.763-27.951-23.273-32.768zm-11.636 44.404c-6.423 0-11.636-5.213-11.636-11.636s5.213-11.636 11.636-11.636 11.636 5.213 11.636 11.636-5.213 11.636-11.636 11.636z"/></g></g></svg>