<svg viewBox="0 0 511.999 511.999" xmlns="http://www.w3.org/2000/svg"><path d="m500.232 11.766c-15.688-15.687-41.218-15.688-56.909 0l-102.864 102.864c-41.716-21.472-94.286-14.79-129.196 20.122l-75.563 75.562c-34.91 34.91-41.594 87.481-20.122 129.196l-103.811 103.813c-15.69 15.69-15.69 41.22 0 56.909 7.846 7.844 18.15 11.766 28.454 11.766s20.61-3.922 28.454-11.766l103.787-103.787c15.514 8.013 32.824 12.284 50.814 12.284 29.648 0 57.493-11.518 78.407-32.432 5.238-5.238 5.238-13.731 0-18.969l-37.939-37.939c-2.515-2.515-5.927-3.929-9.485-3.929-3.557 0-6.97 1.414-9.485 3.929-1.607 1.606-3.375 2.986-5.25 4.176 4.79-14.069 1.591-30.282-9.609-41.482-11.2-11.199-27.413-14.398-41.482-9.608 1.188-1.875 2.57-3.644 4.176-5.25l75.562-75.562c1.388-1.388 2.883-2.602 4.451-3.663-5.006 14.169-1.855 30.603 9.459 41.918 7.846 7.844 18.15 11.766 28.454 11.766 4.563 0 9.125-.773 13.474-2.311-1.073 1.58-2.294 3.074-3.673 4.453-2.515 2.515-3.929 5.927-3.929 9.485 0 3.557 1.414 6.97 3.929 9.485l37.94 37.939c5.238 5.238 13.731 5.237 18.969 0 34.91-34.91 41.594-87.481 20.122-129.196l102.864-102.865c15.691-15.688 15.691-41.217.001-56.908zm-247.085 334.963 19.333 19.333c-14.212 10.288-31.269 15.841-49.202 15.841-10.638 0-20.967-1.957-30.576-5.695l21.785-21.785c2.883.444 5.819.677 8.793.677 10.712.001 20.971-2.915 29.867-8.371zm-61.17-45.677c2.614-2.614 6.049-3.922 9.485-3.922 3.435 0 6.87 1.308 9.485 3.922 5.23 5.23 5.23 13.739 0 18.969l-161.241 161.241c-5.229 5.23-13.739 5.23-18.969 0s-5.23-13.739 0-18.969zm57.225-128.36-75.562 75.562c-10.796 10.796-16.743 25.168-16.743 40.468 0 2.974.233 5.909.677 8.792l-21.757 21.757c-11.711-30.131-5.435-65.699 18.851-89.987l75.563-75.562c16.387-16.387 37.912-24.58 59.438-24.58 10.378 0 20.752 1.913 30.552 5.726l-21.775 21.777c-17.422-2.688-35.852 2.655-49.244 16.047zm117.803 98.834-19.329-19.327c5.455-8.896 8.371-19.154 8.371-29.869 0-2.974-.235-5.91-.677-8.793l21.746-21.746c10.156 26.125 6.802 56.331-10.111 79.735zm114.258-221.821-161.242 161.242c-5.229 5.23-13.739 5.23-18.969 0s-5.23-13.741 0-18.971l161.24-161.239c5.231-5.23 13.741-5.231 18.971 0 5.23 5.23 5.23 13.739 0 18.968z" fill="#f9f9f9"></path><g fill="#fff"><path d="m420.56 400.641-43.63-43.63c-5.238-5.238-13.731-5.238-18.969 0s-5.239 13.731 0 18.969l43.63 43.63c2.62 2.62 6.052 3.929 9.485 3.929 3.432 0 6.866-1.31 9.485-3.929 5.237-5.237 5.238-13.731-.001-18.969z"></path><path d="m476.759 327.83-66.513-9.604c-7.33-1.057-14.135 4.025-15.193 11.359-1.058 7.332 4.027 14.134 11.358 15.193l66.513 9.604c.651.094 1.296.14 1.934.14 6.559 0 12.295-4.817 13.259-11.498 1.058-7.333-4.027-14.135-11.358-15.194z"></path><path d="m355.33 471.974-9.604-66.512c-1.058-7.332-7.866-12.414-15.193-11.359-7.332 1.06-12.417 7.86-11.359 15.193l9.604 66.512c.964 6.681 6.7 11.498 13.259 11.498.638 0 1.285-.046 1.934-.139 7.333-1.059 12.418-7.86 11.359-15.193z"></path></g></svg>