<svg fill="none" viewBox="0 0 24 24" xmlns="http://www.w3.org/2000/svg"><g fill="#a6c1ee"><path d="m20.97 16.08c-.24 2.67-2.17 4.42-4.97 4.42h-9c-2.76 0-5-2.24-5-5v-7c0-2.72 1.64-4.62 4.19-4.94.26-.04.53-.06.81-.06h9c.26 0 .51.01.75.05 2.39.28 4.01 1.95 4.22 4.37.03.29-.21.53-.5.53h-1.55c-.96 0-1.85.37-2.49 1.03-.76.74-1.14 1.78-1.05 2.82.16 1.82 1.76 3.25 3.66 3.25h1.43c.29 0 .53.24.5.53z"></path><path d="m22.0002 10.9692v2.06c0 .55-.44 1-1 1.02h-1.96c-1.08 0-2.07-.79-2.16-1.87-.06-.63.18-1.22.6-1.63.37-.38.88-.59998 1.44-.59998h2.08c.56.02 1 .46998 1 1.01998z"></path></g><path d="m10.387053 1.2689621v5.0344351c0 .1041286-.08383.1879579-.187958.1879579h-.9666393c-.104129 0-.187958-.083829-.187958-.1879579v-5.0344351c0-.1041286.08383-.1879578.187958-.1879578h.9666393c.104129 0 .187958.083829.187958.1879578zm2.097535 6.1928598c-.332258-.5754866-5.2053675-.5754866-5.5376249.0000002-.3322574.5754867 2.1042976 4.7957229 2.7688126 4.7957229.6645143 0 3.1010693-4.2202362 2.7688123-4.7957231z" fill="#0060df" stroke-linecap="round" stroke-width="1.72264"></path></svg>