<svg height="800" viewBox="0 0 1920 1920" width="800" xmlns="http://www.w3.org/2000/svg"><g transform="matrix(.94277084 0 0 .94277084 0 -63.866206)"><path d="m1920 428.266v1189.54l-464.16-580.146-88.203 70.585 468.679 585.904h-1752.632l468.679-585.904-88.202-70.585-464.161 580.145v-1189.54l959.944 832.441zm-.068-202.266v52.627l-959.943 832.44-959.944-832.439v-52.628z" fill="#0060df" fill-rule="evenodd"/><g transform="translate(693.37985 526.95764)"><g fill="none" transform="matrix(45.421762 0 0 45.421762 1493.5074 352.37687)"><path d="m27.9883 51.2969c.375 0 .9609-.1407 1.5703-.4453 13.1016-7.3828 17.625-10.4766 17.625-18.8907v-17.6718c0-2.4141-1.0547-3.1875-3-4.0078-2.7422-1.1251-11.5312-4.2891-14.25-5.25-.6328-.1875-1.2656-.3282-1.9453-.3282-.6563 0-1.2891.1407-1.9219.3282-2.7188.9843-11.5078 4.1484-14.25 5.25-1.9453.7968-3 1.5937-3 4.0078v17.6718c0 8.4141 4.5469 11.4844 17.625 18.8907.6094.3046 1.1719.4453 1.5469.4453z" fill="#0060df" stroke="#234d97" transform="matrix(.42857143 0 0 .42857143 -23.745634 1.377357)"/><path d="m-7.718134 12.304857c-.072-.072-.171-.114-.276-.114h-9.522c-.174 0-.261.21-.138.333l1.881 1.881c.072.072.171.114.276.114h9.522c.174 0 .261-.21.138-.333zm-8.055-3.4890001c.075-.072.174-.114.276-.114h9.522c.174 0 .261.21.138.333l-1.881 1.8810001c-.072.072-.171.114-.276.114h-9.522c-.174 0-.261-.21-.138-.333zm0 7.0230001c.072-.072.171-.114.276-.114h9.522c.174 0 .261.21.138.333l-1.881 1.881c-.072.072-.171.114-.276.114h-9.522c-.174 0-.261-.21-.138-.333z" fill="none"/></g><path d="m715.60615 1077.0819h113.9873c-2.235 8.5966-3.4391 17.0208-3.4391 24.7578 0 27.6801 15.4739 47.4519 47.9677 47.4519 39.5436 0 71.5215-27.8524 92.1528-72.2097h238.11985c6.017 0 10.8307-4.6414 10.8307-10.6593 0-6.0169-4.8137-10.487-10.8307-10.487h-229.52325c9.6274-28.196 15.473-61.2058 16.6771-96.9674 10.83155-2.4065 22.17725-3.6106 33.87025-3.6106 6.0179 0 9.4543 2.5797 9.4543 7.0497 0 14.9572-8.0806 26.6483-8.0806 41.6063 0 13.0667 9.6302 20.975 22.179 20.975 34.9003 0 77.0234-59.6589 90.9487-59.6589 12.7221 0-3.0946 53.6411 40.2318 53.6411 7.0497 0 16.1621-1.8905 23.2109-6.3606 4.1264-2.9233 7.0488-7.0497 7.0488-12.3794 0-6.5328-4.1265-11.8625-11.003-11.8625-6.0178 0-11.0029 4.9851-16.8485 4.9851-18.5695 0-.8623-57.0793-35.0725-57.0793-29.9152 0-76.6825 58.1112-88.5441 58.1112-1.546 0-2.7501-.8596-2.7501-2.9224 0-6.1892 7.7352-20.1154 7.7352-34.0416 0-17.1921-14.2708-28.196-36.6185-28.196-12.208 0-24.2428 1.2032-35.76165 3.4382-3.7828-90.605-46.7646-161.9551-112.4404-161.9551-44.185 0-78.2266 37.6521-78.2266 85.6199 0 56.0484 36.4489 104.0154 81.8371 135.8219-20.1154 19.7718-35.7608 42.2945-45.3882 63.7854h-121.7243c-6.0179 0-10.8316 4.4701-10.8316 10.487 0 6.0179 4.8137 10.6593 10.8316 10.6593zm111.4086-220.7536c0-33.5256 22.6941-59.4866 52.0934-59.4866 51.5783 0 84.9317 64.129 86.4795 142.8715-23.726 8.252-45.3891 20.8027-64.1291 35.7598-35.7607-24.7568-74.4438-65.6749-74.4438-119.1447zm-116.3947 162.987c4.4701 4.4701 11.1753 4.2978 15.8167 0l21.4909-21.4909 21.4909 21.4909c4.4701 4.4701 11.3475 4.4701 15.8176 0s4.4701-11.3475 0-15.8176l-21.4909-21.3186 21.4909-21.4909c4.4701-4.4701 4.4701-11.1752 0-15.6462-4.4701-4.6415-11.3475-4.4692-15.8176 0l-21.4909 21.3195-21.4909-21.3195c-4.6414-4.6415-11.3466-4.6415-15.8167 0-4.47 4.471-4.47 11.3475 0 15.6462l21.491 21.4909-21.491 21.3186c-4.47 4.6424-4.47 11.3475 0 15.8176zm209.5785-5.5019c2.235 1.0318 4.2987 1.5468 6.3614 1.5468 7.0488 0 12.0348-5.501 12.0348-11.3466 0-4.2987-2.0628-8.4242-7.0488-10.8315-2.4073-1.2032-4.8137-2.4074-7.3924-3.7829 12.3784-8.7679 26.1324-16.5048 40.9181-22.3504-2.0637 33.182-8.4242 63.7854-18.224 88.8868h-81.8371c8.9393-16.8494 22.3495-34.5575 39.3704-50.2028 5.1582 2.9223 10.4879 5.5019 15.8176 8.0806zm-67.2237 83.0403c0-6.0169 1.0318-12.7221 3.2669-19.7718h80.8062c-15.474 28.5406-36.2767 46.0765-60.0026 46.0765-16.5049 0-24.0705-10.8307-24.0705-26.3047z" fill="#234d97" stroke-width="9.11519"/></g></g></svg>