<svg fill="none" viewBox="0 0 24 24" xmlns="http://www.w3.org/2000/svg"><path d="m5.5 12c0-3.59 2.91-6.5 6.5-6.5s6.5 2.91 6.5 6.5c0 2.08-.98 3.94-2.5 5.13h-.01c-1.1.86-2.48 1.37-3.99 1.37-1.49 0-2.86-.5-3.96-1.35h-.01c-1.54-1.19-2.53-3.05-2.53-5.15z" fill="#a6c1ee" opacity=".4"></path><g fill="#a6c1ee"><path d="m8.0293 17.1499h.01c1.1.85 2.47 1.35 3.96 1.35 1.51 0 2.89-.51 3.99-1.37h.01l-.51 2.47c-.49 1.9-1.59 2.4-2.94 2.4h-1.09c-1.35 0-2.46-.5-2.94-2.41z"></path><path d="m8.0293 6.85h.01c1.1-.85 2.47-1.35 3.96-1.35 1.51 0 2.89.51 3.99 1.37h.01l-.51-2.47c-.49-1.9-1.59-2.4-2.94-2.4h-1.09c-1.35 0-2.46.5-2.94 2.41z"></path><path d="m13.4 14.5999c-.19 0-.38-.07-.53-.22l-1.4-1.4c-.14-.14-.22-.33-.22-.53v-2.78999c0-.41.34-.75.75-.75s.75.34.75.75v2.47999l1.18 1.18c.29.29.29.77 0 1.06-.15.15-.34.22-.53.22z"></path></g></svg>