<svg viewBox="0 0 1024 1024" xmlns="http://www.w3.org/2000/svg"><path d="m667.8 362.1h-363.8v467.9c0 28.2 23 51 51.3 51h312.4c28.4 0 51.4-22.8 51.4-51v-467.8h-51.3z" fill="#a6c1ee"></path><path d="m733.3 258.3h-106.7v-62.3c0-11.5-9.3-20.8-20.8-20.8h-186.7c-11.5 0-20.8 9.3-20.8 20.8v62.3h-108.4c-20.8 0-37.7 16.5-37.7 36.8v50.9c0 18.1 13.5 33.1 31.1 36.2v447.8c0 39.6 32.3 71.8 72.1 71.8h312.4c39.8 0 72.1-32.2 72.1-71.8v-447.8c17.7-3.1 31.1-18.1 31.1-36.2v-50.9c.1-20.2-16.9-36.8-37.7-36.8zm-293.5-41.5h145.3v41.5h-145.3zm-146.2 83.1h435.9v41.5h-435.9zm404.8 530.2c0 16.7-13.7 30.3-30.6 30.3h-312.4c-16.9 0-30.6-13.6-30.6-30.3v-447.2h373.6z" fill="#a6c1ee"></path><path d="m511.6 798.9c11.5 0 20.8-9.3 20.8-20.8v-311.3c0-11.5-9.3-20.8-20.8-20.8s-20.8 9.3-20.8 20.8v311.4c0 11.4 9.3 20.7 20.8 20.7zm-103.8 0c11.5 0 20.8-9.3 20.8-20.8v-311.3c0-11.5-9.3-20.8-20.8-20.8s-20.8 9.3-20.8 20.8v311.4c.1 11.4 9.4 20.7 20.8 20.7zm207.6.7c11.5 0 20.8-9.3 20.8-20.8v-311.4c0-11.5-9.3-20.8-20.8-20.8s-20.8 9.3-20.8 20.8v311.4c0 11.5 9.3 20.8 20.8 20.8z" fill="#ccdbf5"></path></svg>