<svg viewBox="0 0 223.017 223.017" xmlns="http://www.w3.org/2000/svg"><g fill="#0f0" transform="translate(-145.484 -143.5)"><path d="m256.984 143.5c-61.486 0-111.5 50.014-111.5 111.485 0 61.502 50.014 111.532 111.5 111.532 61.47 0 111.501-50.03 111.517-111.532-.001-61.471-50.031-111.485-111.517-111.485zm0 191.018c-43.839 0-79.501-35.679-79.501-79.534 0-43.823 35.663-79.486 79.501-79.486 43.839 0 79.502 35.647 79.518 79.486-.001 43.855-35.679 79.534-79.518 79.534z"></path><path d="m316.614 211.881c-6.256-6.256-16.367-6.256-22.623 0l-53.982 53.982-18.832-18.863c-6.256-6.272-16.384-6.256-22.639-.016s-6.256 16.367-.016 22.623l30.159 30.191c2.992 3.008 7.072 4.688 11.328 4.688s8.32-1.696 11.312-4.688l65.294-65.294c6.255-6.255 6.255-16.367-.001-22.623z"></path></g></svg>