<svg viewBox="0 0 512 512" xmlns="http://www.w3.org/2000/svg"><g fill="#a6c1ee"><circle cx="69.819" cy="58.182" r="11.636"></circle><path d="m496.99 236.102c-3.258-3.142-8.378-4.305-12.684-2.444-1.513.582-2.676 1.396-3.84 2.444-2.106 2.211-3.375 5.236-3.375 8.262s1.268 6.051 3.375 8.262c1.164 1.047 2.327 1.862 3.84 2.444 1.396.698 2.909.931 4.422.931 3.025 0 6.051-1.28 8.262-3.375 2.095-2.211 3.375-5.236 3.375-8.262s-1.28-6.051-3.375-8.262z"></path><circle cx="349.674" cy="81.455" r="11.636"></circle><circle cx="488.728" cy="150.342" r="11.636"></circle><circle cx="396.685" cy="81.455" r="11.636"></circle><path d="m492.44 98.676h-.116c-3.247-5.586-10.345-7.447-15.814-4.189-5.585 3.258-7.459 10.356-4.189 15.942 2.095 3.607 6.039 5.702 10.007 5.702 2.095 0 4.073-.465 5.935-1.629 5.469-3.258 7.447-10.357 4.177-15.826z"></path><path d="m444.045 69.818c-6.412-.233-11.764 4.887-11.985 11.287-.244 6.4 4.771 11.753 11.287 11.985h.349c6.284 0 11.392-5.004 11.636-11.287.116-6.399-4.887-11.752-11.287-11.985z"></path><circle cx="488.728" cy="197.353" r="11.636"></circle><path d="m313.252 77.033c-.582-1.513-1.396-2.676-2.444-3.84-4.422-4.305-12.218-4.305-16.524 0-1.047 1.164-1.862 2.444-2.444 3.84s-.931 2.909-.931 4.422c0 3.025 1.268 6.051 3.375 8.262 2.211 2.095 5.236 3.375 8.262 3.375s6.051-1.28 8.262-3.375c2.095-2.211 3.375-5.236 3.375-8.262 0-1.513-.349-3.026-.931-4.422z"></path><path d="m31.536 236.102c-4.305-4.305-12.218-4.305-16.524 0-2.106 2.211-3.375 5.236-3.375 8.262s1.268 6.051 3.375 8.262c2.211 2.095 5.236 3.375 8.262 3.375.803 0 1.513-.116 2.327-.233.698-.116 1.385-.349 2.095-.698.698-.233 1.396-.582 2.095-1.047.582-.466 1.175-.931 1.745-1.396 2.095-2.211 3.375-5.236 3.375-8.262s-1.281-6.052-3.375-8.263z"></path><path d="m23.041 326.749c-6.4.116-11.52 5.353-11.404 11.869.116 6.284 5.353 11.404 11.636 11.404h.233c6.4-.116 11.52-5.469 11.404-11.869s-5.469-11.52-11.869-11.404z"></path><circle cx="23.274" cy="291.375" r="11.636"></circle><path d="m51.783 367.36c-5.481-3.375-12.695-1.513-15.942 3.956-3.375 5.469-1.513 12.684 3.956 15.942 1.862 1.164 3.956 1.745 6.051 1.745 3.84 0 7.68-1.978 9.903-5.702 3.363-5.468 1.617-12.566-3.968-15.941z"></path><circle cx="91.579" cy="384" r="11.636"></circle><circle cx="185.601" cy="384" r="11.636"></circle><circle cx="138.59" cy="384" r="11.636"></circle><path d="m243.434 379.578c-.582-1.396-1.396-2.676-2.444-3.84-3.258-3.258-8.495-4.305-12.684-2.444-1.513.582-2.676 1.396-3.84 2.444-1.047 1.164-1.862 2.444-2.444 3.84-.698 1.396-.931 2.909-.931 4.422s.233 3.025.931 4.422c.582 1.513 1.396 2.676 2.444 3.84 2.211 2.095 5.236 3.375 8.262 3.375s6.051-1.28 8.262-3.375c1.047-1.164 1.862-2.327 2.444-3.84.582-1.396.931-2.909.931-4.422s-.349-3.025-.931-4.422z"></path><path d="m232.728 0h-186.182c-19.246 0-34.909 15.663-34.909 34.909v69.818 69.818c0 19.247 15.663 34.909 34.909 34.909h186.182c19.247 0 34.909-15.663 34.909-34.909v-69.818-69.818c0-19.246-15.662-34.909-34.909-34.909zm11.637 174.545c0 6.412-5.213 11.636-11.636 11.636h-186.183c-6.423 0-11.636-5.225-11.636-11.636v-58.182h209.455zm0-81.454h-209.455v-58.182c0-6.412 5.213-11.636 11.636-11.636h186.182c6.423 0 11.636 5.225 11.636 11.636v58.182z"></path><path d="m221.092 46.545h-69.818c-6.435 0-11.636 5.213-11.636 11.636s5.201 11.636 11.636 11.636h69.818c6.435 0 11.636-5.213 11.636-11.636s-5.201-11.636-11.636-11.636z"></path><circle cx="69.819" cy="151.273" r="11.636"></circle><path d="m221.092 139.636h-69.818c-6.435 0-11.636 5.213-11.636 11.636s5.201 11.636 11.636 11.636h69.818c6.435 0 11.636-5.213 11.636-11.636s-5.201-11.636-11.636-11.636z"></path><path d="m465.456 279.273h-162.91c-19.247 0-34.909 15.663-34.909 34.909v116.364c0 19.247 15.663 34.909 34.909 34.909h69.818v23.273h-23.273c-6.435 0-11.636 5.213-11.636 11.636s5.201 11.636 11.636 11.636h69.818c6.435 0 11.636-5.213 11.636-11.636s-5.201-11.636-11.636-11.636h-23.273v-34.909c0-6.423-5.201-11.636-11.636-11.636h-81.455c-6.423 0-11.636-5.225-11.636-11.636v-11.636h186.182v11.636c0 6.412-5.213 11.636-11.636 11.636h-34.909c-6.435 0-11.636 5.213-11.636 11.636s5.201 11.636 11.636 11.636h34.909c19.247 0 34.909-15.663 34.909-34.909v-116.364c.001-19.247-15.662-34.909-34.908-34.909zm11.636 116.363h-186.182v-81.455c0-6.412 5.213-11.636 11.636-11.636h162.909c6.423 0 11.636 5.225 11.636 11.636v81.455z"></path></g></svg>