<svg height="800" viewBox="0 0 56 56" width="800" xmlns="http://www.w3.org/2000/svg"><path d="m1.1883 43.4869h12.5052c-.2452.9431-.3773 1.8673-.3773 2.7161 0 3.0367 1.6976 5.2058 5.2624 5.2058 4.3382 0 7.8464-3.0556 10.1098-7.9219h26.1234c.6601 0 1.1882-.5092 1.1882-1.1694 0-.6601-.5281-1.1505-1.1882-1.1505h-25.1803c1.0562-3.0933 1.6975-6.7147 1.8296-10.638 1.1883-.264 2.433-.3961 3.7158-.3961.6602 0 1.0372.283 1.0372.7734 0 1.6409-.8865 2.9235-.8865 4.5645 0 1.4335 1.0565 2.3011 2.4332 2.3011 3.8288 0 8.45-6.545 9.9777-6.545 1.3957 0-.3395 5.8848 4.4137 5.8848.7734 0 1.7731-.2074 2.5464-.6978.4527-.3207.7733-.7734.7733-1.3581 0-.7167-.4527-1.3014-1.2071-1.3014-.6602 0-1.2071.5469-1.8484.5469-2.0372 0-.0946-6.262-3.8477-6.262-3.2819 0-8.4126 6.3752-9.7139 6.3752-.1696 0-.3017-.0943-.3017-.3206 0-.679.8486-2.2068.8486-3.7346 0-1.8861-1.5656-3.0933-4.0173-3.0933-1.3393 0-2.6596.132-3.9233.3772-.415-9.94-5.1304-17.7676-12.3355-17.7676-4.8474 0-8.582 4.1307-8.582 9.3931 0 6.1489 3.9987 11.4112 8.9781 14.9006-2.2068 2.1691-3.9232 4.64-4.9794 6.9977h-13.354c-.6602 0-1.1883.4904-1.1883 1.1505 0 .6602.5281 1.1694 1.1883 1.1694zm12.2223-24.2182c0-3.678 2.4897-6.5261 5.715-6.5261 5.6585 0 9.3176 7.0354 9.4874 15.674-2.6029.9053-4.9795 2.2822-7.0354 3.9231-3.9232-2.716-8.167-7.205-8.167-13.071zm-12.7693 17.8808c.4904.4904 1.226.4715 1.7352 0l2.3577-2.3577 2.3577 2.3577c.4904.4904 1.2449.4904 1.7353 0s.4904-1.2449 0-1.7353l-2.3577-2.3388 2.3577-2.3577c.4904-.4904.4904-1.226 0-1.7165-.4904-.5092-1.2449-.4903-1.7353 0l-2.3577 2.3389-2.3577-2.3389c-.5092-.5092-1.2448-.5092-1.7352 0-.4904.4905-.4904 1.2449 0 1.7165l2.3577 2.3577-2.3577 2.3388c-.4904.5093-.4904 1.2449 0 1.7353zm22.9922-.6036c.2452.1132.4716.1697.6979.1697.7733 0 1.3203-.6035 1.3203-1.2448 0-.4716-.2263-.9242-.7733-1.1883-.2641-.132-.5281-.2641-.811-.415 1.358-.9619 2.8669-1.8107 4.489-2.452-.2264 3.6403-.9242 6.9977-1.9993 9.7515h-8.9781c.9807-1.8485 2.4519-3.7912 4.3192-5.5076.5659.3206 1.1506.6036 1.7353.8865zm-7.3749 9.1101c0-.6601.1132-1.3957.3584-2.1691h8.865c-1.6976 3.1311-3.9798 5.0549-6.5827 5.0549-1.8107 0-2.6407-1.1882-2.6407-2.8858z" fill="#a6c1ee"/></svg>