<svg viewBox="0 0 512 512" xmlns="http://www.w3.org/2000/svg"><g transform="matrix(.764065 0 0 .764065 0 62.239735)"><path d="m434.75159 178.91331h-63.13951v6.19178h63.13951zm-195.46658 27.06753v132.6146h33.44798v-132.6146zm147.17284 0v132.6146h33.45694v-132.6146zm-14.8368 159.87982h63.13951v-6.34455h-63.13951zm10.28959-278.771941-116.56462-80.6094023-9.36399-6.4793167-9.37298 6.4793167-116.52867 80.6813003-40.053029 27.732503h331.900429zm83.0268 70.885911v-22.2237h-417.874831v22.20575h400.225251zm-240.50717 207.88603h63.13951v-6.34455h-63.13951zm-84.05127-186.9833h-63.130538v6.19178h63.130538zm324.55844 207.895h-417.874831v22.30463h417.874831zm-177.36766-207.895h-63.13951v6.19178h63.13951zm186.31828 251.04841h-2.95658-215.1831-143.10188-112.6465v37.93225h255.74838 256.25162v-37.93225zm-381.793827-223.94493v132.6146h33.456947v-132.6146zm-14.845771 153.53527v6.35352h63.121568v-6.36249h-63.121568z" fill="#a6c1ee" stroke-width="8.98656"></path><g transform="matrix(-.63999999 0 0 .63999999 670.10006 216.59032)"><g fill="#a6c1ee"><circle cx="145.114" cy="316.08401" r="134.91499"></circle><path d="m280.02899 320.27499h221.771v64.816002h-221.771z"></path><path d="m280.02899 385.091h221.771v64.816002h-221.771z"></path><path d="m280.02899 190.633h221.771v64.816002h-221.771z"></path><path d="m280.02899 255.44901h221.771v64.816002h-221.771z"></path><path d="m280.02899 60.998001h221.771v64.816002h-221.771z"></path><path d="m280.02899 125.817h221.771v64.816002h-221.771z"></path></g><g fill="#0060df"><path d="m269.834 241.975c-25.341-42.485-71.758-71.007-124.718-71.007-80.018 0-145.116 65.099-145.116 145.117s65.098 145.116 145.116 145.116c52.96 0 99.377-28.522 124.718-71.007v59.715c0 5.632 4.567 10.199 10.199 10.199h221.767c5.632 0 10.199-4.567 10.199-10.199v-388.911c0-5.632-4.567-10.199-10.199-10.199h-221.767c-5.632 0-10.199 4.567-10.199 10.199zm221.768-61.539h-201.369v-44.421h201.369zm0 64.819h-201.369v-44.421h201.369zm0 64.818h-201.369v-44.42h201.369zm-201.369 20.399h201.369v44.421h-201.369zm0-259.274h201.369v44.421h-201.369zm-145.117 369.604c-68.77 0-124.718-55.948-124.718-124.718s55.948-124.718 124.718-124.718 124.718 55.948 124.718 124.718-55.948 124.718-124.718 124.718zm346.486-1.092h-201.369v-44.42h201.369z"></path><path d="m382.47 430.406h88.733c5.632 0 10.199-4.567 10.199-10.199s-4.567-10.199-10.199-10.199h-88.733c-5.632 0-10.199 4.567-10.199 10.199s4.567 10.199 10.199 10.199z"></path><path d="m345.753 430.406h5.1c5.632 0 10.199-4.567 10.199-10.199s-4.567-10.199-10.199-10.199h-5.1c-5.632 0-10.199 4.567-10.199 10.199s4.567 10.199 10.199 10.199z"></path></g></g></g></svg>