<svg viewBox="0 0 24 24" xmlns="http://www.w3.org/2000/svg"><g transform="matrix(.88270448 0 0 .88270448 6.565508 3.747307)"><path d="m11.483197 6.8252159h-2.7434303v.26903h2.7434303zm-8.4930703 1.17609v5.7621401h1.45332v-5.7621401zm6.39469 0v5.7621401h1.4537203v-5.7621401zm-.64466 6.9468201h2.7434303v-.27567h-2.7434303zm.44709-12.1127101-5.06477-3.50249999-.40686-.28153-.40726.28153-5.0631996 3.50561999-1.74032 1.20499h14.4211599zm3.6075303 3.08001v-.96563h-18.1567699v.96485h17.3898899zm-10.4501003 9.0327001h2.74343v-.27567h-2.74343zm-3.6520496-8.1244701h-2.74304v.26903h2.74304zm14.1021499 9.0330901h-18.1567699v.96914h18.1567699zm-7.7066703-9.0330901h-2.74343v.26903h2.74343zm8.0955803 10.9081201h-.12847-9.3497603-6.2178096-4.89452v1.64816h11.1123296 11.1342003v-1.64816zm-16.5890399-9.7304701v5.7621401h1.45371v-5.7621401zm-.64506 6.6711501v.27606h2.74265v-.27645h-2.74265z" fill="#a6c1ee" stroke-width=".390468"></path><path d="m13.062045 5.80144c-3.4561964 0-6.3755693 2.9193724-6.3755693 6.375567 0 3.456195 2.9193729 6.375567 6.3755693 6.375567 3.456194 0 6.375567-2.919372 6.375567-6.375567 0-3.4561946-2.919373-6.375567-6.375567-6.375567zm0 3.1877828c1.10106 0 1.91267.8109724 1.91267 1.9126702 0 1.101698-.81161 1.91267-1.91267 1.91267-1.100424 0-1.912671-.810972-1.912671-1.91267 0-1.1016978.812247-1.9126702 1.912671-1.9126702zm-3.2553664 6.2302042c.5718884-.841574 1.5256744-1.402625 2.6178094-1.402625h1.275113c1.092772 0 2.045919.561051 2.617808 1.402625-.814798.872179-1.970688 1.420477-3.255364 1.420477-1.284678 0-2.440569-.548298-3.2553664-1.420477z" fill="#a5c0ee" stroke="#0060df" stroke-width=".637557"></path></g></svg>