<svg viewBox="0 0 98.614 98.614" xmlns="http://www.w3.org/2000/svg"><g fill="#a6c1ee"><path d="m30.61 54.583h-20.349c-1.462 0-2.645 1.185-2.645 2.644v38.742c0 1.459 1.183 2.646 2.645 2.646h20.349c1.461 0 2.645-1.187 2.645-2.646v-38.742c-.001-1.459-1.184-2.644-2.645-2.644zm-1.702 39.771h-17.033v-35.512h17.033z"></path><path d="m27.458 83.298h-14.131v9.337h14.131zm-1.359 7.888h-11.415v-6.436h11.415z"></path><path d="m23.383 85.839h1.356v4.257h-1.356z"></path><path d="m21.117 85.839h1.447v4.257h-1.447z"></path><path d="m17.52 90.201c1.257 0 2.28-1.023 2.28-2.281 0-1.257-1.023-2.279-2.28-2.279s-2.279 1.022-2.279 2.279c-.001 1.258 1.021 2.281 2.279 2.281zm0-3.14c.473 0 .86.387.86.858 0 .476-.388.858-.86.858s-.859-.385-.859-.858c-.001-.472.385-.858.859-.858z"></path><path d="m27.458 71.975h-14.131v9.332h14.131zm-1.359 7.884h-11.415v-6.522h11.415z"></path><path d="m23.383 74.424h1.356v4.256h-1.356z"></path><path d="m21.117 74.424h1.447v4.256h-1.447z"></path><path d="m17.52 78.827c1.257 0 2.28-1.022 2.28-2.281s-1.023-2.282-2.28-2.282-2.279 1.023-2.279 2.282c-.001 1.257 1.021 2.281 2.279 2.281zm0-3.139c.473 0 .86.388.86.857 0 .475-.388.859-.86.859s-.859-.385-.859-.859c-.001-.47.385-.857.859-.857z"></path><path d="m27.458 60.561h-14.131v9.332h14.131zm-1.359 7.884h-11.415v-6.523h11.415z"></path><path d="m23.383 63.01h1.356v4.256h-1.356z"></path><path d="m21.117 63.01h1.447v4.256h-1.447z"></path><path d="m17.52 67.413c1.257 0 2.28-1.021 2.28-2.282 0-1.256-1.023-2.279-2.28-2.279s-2.279 1.023-2.279 2.279c-.001 1.26 1.021 2.282 2.279 2.282zm0-3.14c.473 0 .86.387.86.856 0 .474-.388.858-.86.858s-.859-.385-.859-.858c-.001-.469.385-.856.859-.856z"></path><path d="m59.481 54.583h-20.349c-1.462 0-2.645 1.185-2.645 2.644v38.742c0 1.459 1.183 2.646 2.645 2.646h20.349c1.461 0 2.646-1.187 2.646-2.646v-38.742c-.001-1.459-1.185-2.644-2.646-2.644zm-1.701 39.771h-17.033v-35.512h17.033z"></path><path d="m56.33 83.298h-14.132v9.337h14.132zm-1.361 7.888h-11.415v-6.436h11.415z"></path><path d="m52.254 85.839h1.355v4.257h-1.355z"></path><path d="m49.988 85.839h1.448v4.257h-1.448z"></path><path d="m46.391 90.201c1.257 0 2.28-1.023 2.28-2.281 0-1.257-1.023-2.279-2.28-2.279s-2.279 1.022-2.279 2.279c-.001 1.258 1.021 2.281 2.279 2.281zm0-3.14c.473 0 .86.387.86.858 0 .476-.388.858-.86.858s-.859-.385-.859-.858c-.001-.472.386-.858.859-.858z"></path><path d="m56.33 71.975h-14.132v9.332h14.132zm-1.361 7.884h-11.415v-6.522h11.415z"></path><path d="m52.254 74.424h1.355v4.256h-1.355z"></path><path d="m49.988 74.424h1.448v4.256h-1.448z"></path><path d="m46.391 78.827c1.257 0 2.28-1.022 2.28-2.281s-1.023-2.282-2.28-2.282-2.279 1.023-2.279 2.282c-.001 1.257 1.021 2.281 2.279 2.281zm0-3.139c.473 0 .86.388.86.857 0 .475-.388.859-.86.859s-.859-.385-.859-.859c-.001-.47.386-.857.859-.857z"></path><path d="m56.33 60.561h-14.132v9.332h14.132zm-1.361 7.884h-11.415v-6.523h11.415z"></path><path d="m52.254 63.01h1.355v4.256h-1.355z"></path><path d="m49.988 63.01h1.448v4.256h-1.448z"></path><path d="m46.391 67.413c1.257 0 2.28-1.021 2.28-2.282 0-1.256-1.023-2.279-2.28-2.279s-2.279 1.023-2.279 2.279c-.001 1.26 1.021 2.282 2.279 2.282zm0-3.14c.473 0 .86.387.86.856 0 .474-.388.858-.86.858s-.859-.385-.859-.858c-.001-.469.386-.856.859-.856z"></path><path d="m88.352 54.583h-20.348c-1.462 0-2.645 1.185-2.645 2.644v38.742c0 1.459 1.183 2.646 2.645 2.646h20.35c1.461 0 2.645-1.187 2.645-2.646v-38.742c-.001-1.459-1.184-2.644-2.647-2.644zm-1.701 39.771h-17.033v-35.512h17.033z"></path><path d="m85.2 83.298h-14.131v9.337h14.131zm-1.36 7.888h-11.415v-6.436h11.415z"></path><path d="m81.126 85.839h1.356v4.257h-1.356z"></path><path d="m78.86 85.839h1.446v4.257h-1.446z"></path><path d="m75.261 90.201c1.257 0 2.28-1.023 2.28-2.281 0-1.257-1.023-2.279-2.28-2.279s-2.278 1.022-2.278 2.279c0 1.258 1.021 2.281 2.278 2.281zm0-3.14c.474 0 .86.387.86.858 0 .476-.389.858-.86.858s-.858-.385-.858-.858c0-.472.387-.858.858-.858z"></path><path d="m85.2 71.975h-14.131v9.332h14.131zm-1.36 7.884h-11.415v-6.522h11.415z"></path><path d="m81.126 74.424h1.356v4.256h-1.356z"></path><path d="m78.86 74.424h1.446v4.256h-1.446z"></path><path d="m75.261 78.827c1.257 0 2.28-1.022 2.28-2.281s-1.023-2.282-2.28-2.282-2.278 1.023-2.278 2.282c0 1.257 1.021 2.281 2.278 2.281zm0-3.139c.474 0 .86.388.86.857 0 .475-.389.859-.86.859s-.858-.385-.858-.859c0-.47.387-.857.858-.857z"></path><path d="m85.2 60.561h-14.131v9.332h14.131zm-1.36 7.884h-11.415v-6.523h11.415z"></path><path d="m81.126 63.01h1.356v4.256h-1.356z"></path><path d="m78.86 63.01h1.446v4.256h-1.446z"></path><path d="m75.261 67.413c1.257 0 2.28-1.021 2.28-2.282 0-1.256-1.023-2.279-2.28-2.279s-2.278 1.023-2.278 2.279c0 1.26 1.021 2.282 2.278 2.282zm0-3.14c.474 0 .86.387.86.856 0 .474-.389.858-.86.858s-.858-.385-.858-.858c0-.469.387-.856.858-.856z"></path><path d="m51.807 51.967v-16.601l17.994 16.601h7.376l-22.08-20.369c.204-.61.319-1.261.319-1.939 0-3.374-2.735-6.109-6.109-6.109s-6.109 2.735-6.109 6.109c0 .679.115 1.329.319 1.939l-22.08 20.369h7.376l17.994-16.601v16.601z"></path><path d="m17.221 50.414 6.674-6.157c-6.131-.33-11.021-5.408-11.021-11.62 0-6.425 5.228-11.652 11.652-11.652.324 0 .644.025.961.052 1.852.143 3.528-1.059 3.979-2.854 1.567-6.246 7.153-10.606 13.583-10.606 3.674 0 7.151 1.419 9.791 3.995.902.88 2.184 1.254 3.418.997.786-.163 1.592-.247 2.391-.247 4.498 0 8.517 2.529 10.484 6.601.691 1.432 2.203 2.283 3.785 2.12.395-.04.788-.059 1.17-.059 6.425 0 11.652 5.228 11.652 11.652 0 6.212-4.891 11.29-11.021 11.62l6.674 6.157c6.988-2.882 11.924-9.762 11.924-17.777 0-10.107-7.84-18.419-17.758-19.173-.539-.041-1.035-.316-1.354-.754-3.58-4.922-9.383-7.963-15.559-7.963-.427 0-.854.015-1.281.043-.445.029-.887-.104-1.241-.375-3.746-2.862-8.303-4.414-13.075-4.414-8.535 0-16.104 4.983-19.582 12.512-.267.576-.81.975-1.438 1.057-9.427 1.228-16.732 9.311-16.732 19.067 0 8.016 4.935 14.896 11.924 17.778z"></path></g></svg>