<svg viewBox="0 0 512 512" xmlns="http://www.w3.org/2000/svg"><path d="m60.939867 146.88283c-9.193305 0-16.565267 7.44822-16.565267 16.57043v273.4349c0 9.12221 7.371962 16.49087 16.565267 16.49087h390.123363c9.12139 0 16.56217-7.36866 16.56217-16.49087v-273.4349c0-9.12221-7.44078-16.57043-16.56217-16.57043h-129.38392v13.86828c0 8.10211-6.5637 14.59471-14.59472 14.59471h-102.16505c-8.02441 0-14.59575-6.4926-14.59575-14.59471v-13.86828zm247.434323 96.86305h87.56621v14.59575h-.00083-87.56518zm-235.182163 6.54716h54.102943c3.88444 0 7.03034 3.1506 7.03282 7.02973v103.00515c0 3.87912-3.14838 7.03592-7.03282 7.03592h-54.102943c-3.887073 0-7.032824-3.1568-7.032824-7.03592v-103.00515c0-3.87913 3.145751-7.02973 7.032824-7.02973zm76.760703 0h54.10295c3.88444 0 7.03241 3.1506 7.03489 7.02973v103.00515c0 3.87912-3.15045 7.03592-7.03489 7.03592h-54.10295c-3.88709 0-7.03179-3.1568-7.03179-7.03592v-103.00515c0-3.87913 3.1447-7.02973 7.03179-7.02973zm76.76381 0h54.09984c3.88976 0 7.03552 3.1506 7.038 7.02973v103.00515c0 3.87912-3.14735 7.03592-7.0318 7.03592h-54.10604c-3.8871 0-7.03282-3.1568-7.03282-7.03592v-103.00515c0-3.87913 3.14572-7.02973 7.03282-7.02973zm-149.233105 11.32423v94.41717h45.286595v-94.41717zm76.763805 0v94.41717h45.2866v-94.41717zm76.76071 0v94.41717h45.2866v-94.41717zm-149.664005 4.57041h37.570745v24.81122h-37.570745zm76.760705 0h37.57384v24.81122h-37.57384zm76.76071 0h37.57074v24.81122h-37.57074zm-149.91407 3.61768v17.34336h30.34985v-17.34336zm76.75864 0v17.34336h30.34985v-17.34336zm76.76071 0v17.34336h30.34985v-17.34336zm-145.979161 2.47275c3.34205 0 6.06253 2.72004 6.06253 6.05943 0 3.35269-2.72048 6.0677-6.06253 6.0677-3.344713 0-6.06096-2.71767-6.058398-6.0677 0-3.33939 2.716348-6.05943 6.058398-6.05943zm76.761741 0c3.34205 0 6.0615 2.72004 6.0615 6.05943 0 3.35269-2.71945 6.0677-6.0615 6.0677-3.34471 0-6.06191-2.71767-6.05943-6.0677 0-3.33939 2.71738-6.05943 6.05943-6.05943zm76.75761 0c3.34205 0 6.06253 2.72004 6.06253 6.05943 0 3.35269-2.72048 6.0677-6.06253 6.0677-3.34206 0-6.05633-2.71767-6.05633-6.0677 0-3.33939 2.71427-6.05943 6.05633-6.05943zm-143.95488.42057h3.84708v11.31596h-3.84708zm6.0243 0h3.60528v11.31596h-3.60528zm70.73641 0h3.84915v11.31596h-3.84915zm6.0243 0h3.60321v11.31596h-3.60321zm70.73848 0h3.84501v11.31596h-3.84501zm6.02533 0h3.60527v11.31596h-3.60527zm-169.113291 3.35831c-1.260249 0-2.286216 1.02843-2.283653 2.27538 0 1.2576 1.02872 2.28159 2.283653 2.28159s2.286753-1.02134 2.286753-2.28159c0-1.24695-1.029162-2.27538-2.286753-2.27538zm76.761741 0c-1.25758 0-2.28717 1.02843-2.28469 2.27538 0 1.2576 1.02976 2.28159 2.28469 2.28159 1.25494 0 2.28572-1.02134 2.28572-2.28159 0-1.24695-1.02813-2.27538-2.28572-2.27538zm76.75761 0c-1.25228 0-2.28056 1.02843-2.28056 2.27538 0 1.2576 1.02828 2.28159 2.28056 2.28159 1.25226 0 2.28675-1.02134 2.28675-2.28159 0-1.24695-1.02651-2.27538-2.28675-2.27538zm-164.666885 20.47744h37.570745v24.81122h-37.570745zm76.760705 0h37.57384v24.81122h-37.57384zm76.76071 0h37.57074v24.81122h-37.57074zm-149.91407 3.62078v17.34026h30.34985v-17.34026zm76.75864 0v17.34026h30.34985v-17.34026zm76.76071 0v17.34026h30.34985v-17.34026zm-145.979161 2.46449c3.34205 0 6.06253 2.72032 6.06253 6.06769s-2.72048 6.0646-6.06253 6.0646c-3.344713 0-6.06096-2.72255-6.058398-6.0646 0-3.34737 2.716348-6.06769 6.058398-6.06769zm76.761741 0c3.34205 0 6.0615 2.72032 6.0615 6.06769s-2.71945 6.0646-6.0615 6.0646c-3.34471 0-6.06191-2.72255-6.05943-6.0646 0-3.34737 2.71738-6.06769 6.05943-6.06769zm76.75761 0c3.34205 0 6.06253 2.72032 6.06253 6.06769s-2.72048 6.0646-6.06253 6.0646c-3.34206 0-6.05633-2.72255-6.05633-6.0646 0-3.34737 2.71427-6.06769 6.05633-6.06769zm-143.95488.42573h3.84708v11.31596h-3.84708zm6.0243 0h3.60528v11.31596h-3.60528zm70.73641 0h3.84915v11.31596h-3.84915zm6.0243 0h3.60321v11.31596h-3.60321zm70.73848 0h3.84501v11.31596h-3.84501zm6.02533 0h3.60527v11.31596h-3.60527zm-169.113291 3.36038c-1.260249 0-2.286216 1.02887-2.283653 2.27848 0 1.26025 1.02872 2.28469 2.283653 2.28469s2.286753-1.02178 2.286753-2.28469c0-1.24695-1.029162-2.27848-2.286753-2.27848zm76.761741 0c-1.25758 0-2.28717 1.02887-2.28469 2.27848 0 1.26025 1.02976 2.28469 2.28469 2.28469 1.25494 0 2.28572-1.02178 2.28572-2.28469 0-1.24695-1.02813-2.27848-2.28572-2.27848zm76.75761 0c-1.25228 0-2.28056 1.02887-2.28056 2.27848 0 1.26025 1.02828 2.28469 2.28056 2.28469 1.25226 0 2.28675-1.02178 2.28675-2.28469 0-1.24695-1.02651-2.27848-2.28675-2.27848zm62.36336.58796h87.56621v14.59471h-.00083-87.56518zm-227.030245 19.64562h37.570745v24.82465h-37.570745zm76.760705 0h37.57384v24.82465h-37.57384zm76.76071 0h37.57074v24.82465h-37.57074zm-149.91407 3.86051v17.11189h30.34985v-17.11189zm76.75864 0v17.11189h30.34985v-17.11189zm76.76071 0v17.11189h30.34985v-17.11189zm-145.979161 2.36941c3.34205 0 6.06253 2.71635 6.06253 6.0584 0 3.34471-2.72048 6.0646-6.06253 6.0646-3.344713 0-6.06096-2.71989-6.058398-6.0646 0-3.34205 2.716348-6.0584 6.058398-6.0584zm76.761741 0c3.34205 0 6.0615 2.71635 6.0615 6.0584 0 3.34471-2.71945 6.0646-6.0615 6.0646-3.34471 0-6.06191-2.71989-6.05943-6.0646 0-3.34205 2.71738-6.0584 6.05943-6.0584zm76.75761 0c3.34205 0 6.06253 2.71635 6.06253 6.0584 0 3.34471-2.72048 6.0646-6.06253 6.0646-3.34206 0-6.05633-2.71989-6.05633-6.0646 0-3.34205 2.71427-6.0584 6.05633-6.0584zm-143.95488.52597h3.84708v11.31803h-3.84708zm6.0243 0h3.60528v11.31803h-3.60528zm70.73641 0h3.84915v11.31803h-3.84915zm6.0243 0h3.60321v11.31803h-3.60321zm70.73848 0h3.84501v11.31803h-3.84501zm6.02533 0h3.60527v11.31803h-3.60527zm-169.113291 3.24878c-1.260249 0-2.286216 1.02666-2.283653 2.28159 0 1.25759 1.02872 2.28055 2.283653 2.28055s2.286753-1.01499 2.286753-2.28055c0-1.25227-1.029162-2.28159-2.286753-2.28159zm76.761741 0c-1.25758 0-2.28717 1.02666-2.28469 2.28159 0 1.25759 1.02976 2.28055 2.28469 2.28055 1.25494 0 2.28572-1.01499 2.28572-2.28055 0-1.25227-1.02813-2.28159-2.28572-2.28159zm76.75761 0c-1.25228 0-2.28056 1.02666-2.28056 2.28159 0 1.25759 1.02828 2.28055 2.28056 2.28055 1.25226 0 2.28675-1.01499 2.28675-2.28055 0-1.25227-1.02651-2.28159-2.28675-2.28159zm62.36232 33.5976h43.78207v14.59471h-43.78207zm-1.28876-275.132242c0-20.11764-16.36956-36.487195-36.4872-36.487195h-29.19025c-20.11847 0-36.48719 16.369555-36.48719 36.487195v65.677442h102.16464zm-29.19025 14.595542c0 4.03411-3.26366 7.29777-7.29777 7.29777h-29.19026c-4.03411 0-7.29777-3.26366-7.29777-7.29777v-14.595542c0-4.033283 3.26366-7.29777 7.29777-7.29777h29.19026c4.03328 0 7.29777 3.264487 7.29777 7.29777z" fill="#a6c1ee" stroke-width=".826662"></path></svg>