<?xml version="1.0" encoding="iso-8859-1"?>
<!-- Uploaded to: SVG Repo, www.svgrepo.com, Generator: SVG Repo Mixer Tools -->
<svg xmlns="http://www.w3.org/2000/svg" xmlns:xlink="http://www.w3.org/1999/xlink" version="1.1" id="Layer_1"  viewBox="0 0 490.038 490.038" xml:space="preserve" width="512" height="512">
<g>
	<g>
		<path style="fill:#7A797E;" d="M246.698,396.148c-1.946,0-3.88-0.754-5.337-2.228L79.897,230.545    c-2.912-2.946-2.884-7.695,0.063-10.606c2.946-2.914,7.695-2.885,10.606,0.062l123.337,124.797L126.79,187.11    c-2.003-3.626-0.688-8.188,2.938-10.191c3.626-2.006,8.188-0.687,10.191,2.938l113.341,205.165    c1.811,3.278,0.926,7.391-2.073,9.633C249.848,395.656,248.269,396.148,246.698,396.148z"/>
	</g>
	<g>
		<path style="fill:#7A797E;" d="M246.693,396.148c-1.571,0-3.149-0.491-4.489-1.494c-2.999-2.242-3.884-6.354-2.073-9.633    l113.342-205.165c2.003-3.625,6.567-4.941,10.191-2.938c3.626,2.003,4.941,6.565,2.938,10.191l-87.113,157.687L402.827,220    c2.911-2.946,7.659-2.976,10.606-0.062c2.946,2.911,2.974,7.66,0.063,10.606L252.03,393.921    C250.574,395.394,248.639,396.148,246.693,396.148z"/>
	</g>
	<path style="fill:#FF3069;" d="M245.019,144.807c73.481,0,137.923,38.665,174.111,96.757c7.611,12.218,26.477,8.301,28.613-5.934   c1.802-12.006,2.562-24.353,2.182-36.947C446.614,88.871,356.035,0.609,246.174,0.003C132.424-0.624,40.017,91.398,40.017,205.002   c0,10.363,0.771,20.545,2.258,30.494c2.137,14.299,20.994,18.33,28.639,6.059C107.103,183.468,171.542,144.807,245.019,144.807z"/>
	<g>
		<path style="fill:#A5173F;" d="M246.191,99.882C152.964,99.368,74.073,161.086,48.64,245.915    c6.786,4.778,17.109,3.956,22.29-4.359c36.189-58.087,100.628-96.748,174.105-96.748c73.481,0,137.923,38.665,174.111,96.757    c5.154,8.274,15.465,9.141,22.251,4.422C416.043,161.875,337.824,100.387,246.191,99.882z"/>
	</g>
	<g>
		<path style="fill:#A5173F;" d="M245.058,54.559c4.142,0,7.5-3.357,7.5-7.5V0.147c-2.108-0.077-4.221-0.133-6.344-0.144    c-2.901-0.016-5.784,0.044-8.656,0.147v46.909C237.558,51.202,240.916,54.559,245.058,54.559z"/>
		<path style="fill:#A5173F;" d="M144.14,82.319c0.889,0,1.793-0.159,2.674-0.495c3.87-1.478,5.809-5.813,4.332-9.682    l-14.635-38.331c-0.286-0.749-0.681-1.423-1.156-2.016c-4.246,2.695-8.387,5.539-12.413,8.53l14.19,37.167    C138.274,80.482,141.12,82.319,144.14,82.319z"/>
		<path style="fill:#A5173F;" d="M338.971,72.142c-1.477,3.869,0.462,8.204,4.332,9.682c0.88,0.336,1.785,0.495,2.674,0.495    c3.02,0,5.867-1.837,7.008-4.827l14.112-36.959c-4.041-3.008-8.192-5.874-12.451-8.584c-0.422,0.556-0.777,1.177-1.039,1.863    L338.971,72.142z"/>
	</g>
	<path style="fill:#7A797E;" d="M317.648,490.038H175.744c-5.379,0-9.781-4.401-9.781-9.781v-81.828   c0-5.379,4.401-9.781,9.781-9.781h141.904c5.379,0,9.781,4.401,9.781,9.781v81.828   C327.428,485.636,323.027,490.038,317.648,490.038z"/>
	<g>
		<path style="fill:#403E43;" d="M165.964,439.256v41.001c0,5.379,4.401,9.781,9.781,9.781h141.904c5.379,0,9.781-4.401,9.781-9.781    v-41.001H165.964z"/>
	</g>
</g>















</svg>