<svg viewBox="0 0 24 24" xmlns="http://www.w3.org/2000/svg"><path d="m16.701777 9.7719557h-2.421638v.2374743h2.421638zm-7.4968708 1.0381403v5.086266h1.2828518v-5.086266zm5.6446218 0v5.086266h1.283205v-5.086266zm-.569045 6.131989h2.421639v-.243335h-2.421639zm.394649-10.6919437-4.470695-3.0916724-.3591375-.2485078-.3594902.2485078-4.469309 3.0944265-1.5361883 1.06365h12.729623zm3.184383 2.7187386v-.8523659h-16.0270622v.8516774h15.3501342zm-9.2243504 7.9732051h2.4216384v-.243335h-2.4216384zm-3.2236805-7.1715064h-2.4212937v.2374744h2.4212937zm12.4480309 7.9735494h-16.0270622v.855464h16.0270622zm-6.802712-7.9735494h-2.4216384v.2374744h2.4216384zm7.146005 9.6286464h-.113401-8.2530758-5.4884884-4.32041469v1.454838h9.80890309 9.8282088v-1.454838zm-14.6432203-8.589129v5.086266h1.2831964v-5.086266zm-.5693973 5.888654v.243679h2.4209494v-.244024h-2.4209494z" fill="#a6c1ee" stroke-width=".344668"/><g transform="matrix(.36265213 0 0 .36265213 -17.90913 .090872)"><path d="m12.000002 6.3722587c-3.0508005 0-5.6277445 2.5769431-5.6277445 5.6277413 0 3.050798 2.576944 5.627741 5.6277445 5.627741 3.050798 0 5.627741-2.576943 5.627741-5.627741 0-3.0507982-2.576943-5.6277412-5.627741-5.6277413z" fill="#a5c0ee" stroke="#0060df" stroke-width=".562774" transform="matrix(2.7574635 0 0 2.7574635 66.179123 16.544781)"/><path d="m88.72327 54.685967h4.91852c-.0959.372185-.14768.734276-.14768 1.069243 0 1.192885.66741 2.047649 2.06973 2.047649 1.70512 0 3.08535-1.202347 3.97481-3.116892h10.27546c.26116 0 .46808-.19934.46808-.4605 0-.259268-.20692-.451038-.46808-.451038h-9.90327c.41382-1.217487.6674-2.641884.71914-4.184244.46806-.103455.95631-.155175 1.4616-.155175.25865 0 .40878.111022.40878.302796 0 .645961-.3501 1.15125-.3501 1.79658 0 .562064.41696.904599.95633.904599 1.50829 0 3.32379-2.575647 3.9256-2.575647.54944 0-.13311 2.313856 1.73728 2.313856.30279 0 .69706-.08074.99986-.273146.17789-.125541.30594-.303425.30594-.534936 0-.280717-.17979-.509705-.47564-.509705-.26116 0-.47564.213849-.7267.213849-.80116 0-.0373-2.463991-1.51334-2.463991-1.2913 0-3.3093 2.508779-3.82153 2.508779-.0669 0-.11854-.03722-.11854-.12554 0-.268732.33243-.867381.33243-1.469185 0-.741216-.61568-1.216857-1.57958-1.216857-.52673 0-1.04463.05172-1.54234.14761-.16274-3.910466-2.01801-6.988247-4.85167-6.988247-1.90759 0-3.37615 1.623735-3.37615 3.693464 0 2.419833 1.57201 4.490192 3.53134 5.862228-.86737.852872-1.54236 1.823708-1.95933 2.752909h-5.25097c-.26116 0-.46807.191769-.46807.451037 0 .261161.20691.460501.46807.460501zm4.8075-9.526675c0-1.446475.9784-2.564923 2.24761-2.564923 2.22491 0 3.66382 2.767417 3.73069 6.165025-1.02257.355152-1.95933.897028-2.76742 1.54299-1.54237-1.069874-3.21088-2.833653-3.21088-5.143092zm-5.02451 7.035559c.19493.191769.48322.184831.68255 0l.92922-.929201.92667.929201c.1924.191769.49015.191769.68254 0 .19241-.194925.19241-.490781 0-.68255l-.92666-.921632.92666-.926678c.19241-.1924.19241-.483209 0-.674979-.19239-.199971-.49014-.1924-.68254 0l-.92667.919107-.92922-.919107c-.19933-.199971-.48762-.199971-.68255 0-.19176.19177-.19176.490149 0 .674979l.92921.926678-.92921.921632c-.19176.19934-.19176.487625 0 .68255zm9.04348-.239082c.099.04415.18734.06624.27629.06624.3028 0 .5198-.236559.5198-.487627 0-.187354-.0909-.364614-.30532-.46807-.10347-.05172-.20691-.103455-.31793-.162757.53241-.379754 1.12602-.712198 1.7644-.965789-.0889 1.431336-.36271 2.752277-.786 3.836661h-3.53133c.38669-.727339.96327-1.491265 1.69754-2.166244.22457.125541.45355.236559.68255.347584zm-2.8999 3.58307c0-.259268.0442-.547555.14006-.852872h3.48719c-.66552 1.231995-1.56508 1.988351-2.58763 1.988351-.7122 0-1.03961-.468069-1.03961-1.135479z" fill="#0060df"/></g></svg>