<svg viewBox="0 0 490.038 490.038" xmlns="http://www.w3.org/2000/svg"><g fill="#a6c1ee" transform="matrix(.81919073 .47295999 -.47295999 .81919073 161.20021 -77.051388)"><path d="m246.698 396.148c-1.946 0-3.88-.754-5.337-2.228l-161.464-163.375c-2.912-2.946-2.884-7.695.063-10.606 2.946-2.914 7.695-2.885 10.606.062l123.337 124.797-87.113-157.688c-2.003-3.626-.688-8.188 2.938-10.191 3.626-2.006 8.188-.687 10.191 2.938l113.341 205.165c1.811 3.278.926 7.391-2.073 9.633-1.339 1.001-2.918 1.493-4.489 1.493z"></path><path d="m246.693 396.148c-1.571 0-3.149-.491-4.489-1.494-2.999-2.242-3.884-6.354-2.073-9.633l113.342-205.165c2.003-3.625 6.567-4.941 10.191-2.938 3.626 2.003 4.941 6.565 2.938 10.191l-87.113 157.687 123.338-124.796c2.911-2.946 7.659-2.976 10.606-.062 2.946 2.911 2.974 7.66.063 10.606l-161.466 163.377c-1.456 1.473-3.391 2.227-5.337 2.227z"></path><path d="m245.019 144.807c73.481 0 137.923 38.665 174.111 96.757 7.611 12.218 26.477 8.301 28.613-5.934 1.802-12.006 2.562-24.353 2.182-36.947-3.311-109.812-93.89-198.074-203.751-198.68-113.75-.627-206.157 91.395-206.157 204.999 0 10.363.771 20.545 2.258 30.494 2.137 14.299 20.994 18.33 28.639 6.059 36.189-58.087 100.628-96.748 174.105-96.748z"></path><path d="m317.648 490.038h-141.904c-5.379 0-9.781-4.401-9.781-9.781v-81.828c0-5.379 4.401-9.781 9.781-9.781h141.904c5.379 0 9.781 4.401 9.781 9.781v81.828c-.001 5.379-4.402 9.781-9.781 9.781z"></path><path d="m165.964 439.256v41.001c0 5.379 4.401 9.781 9.781 9.781h141.904c5.379 0 9.781-4.401 9.781-9.781v-41.001z"></path></g></svg>