<svg viewBox="0 0 512.015 512.015" xmlns="http://www.w3.org/2000/svg"><g fill="#a6c1ee"><circle cx="69.818" cy="69.826" r="11.636"></circle><circle cx="116.364" cy="69.826" r="11.636"></circle><path d="m290.909 465.462h-2.141c-4.817-13.51-17.617-23.273-32.768-23.273h-23.273v-34.909c0-6.423-5.213-11.636-11.636-11.636s-11.636 5.213-11.636 11.636v34.909h-23.273c-15.151 0-27.951 9.763-32.768 23.273h-71.959c-6.423 0-11.636 5.213-11.636 11.636s5.213 11.636 11.636 11.636h71.959c4.817 13.51 17.617 23.273 32.768 23.273h69.818c15.151 0 27.951-9.763 32.768-23.273h2.153c6.423 0 11.625-5.213 11.625-11.636-.001-6.423-5.214-11.636-11.637-11.636zm-34.909 23.273h-69.818c-6.412 0-11.636-5.225-11.636-11.636s5.225-11.636 11.636-11.636h69.818c6.412 0 11.636 5.225 11.636 11.636s-5.224 11.636-11.636 11.636z"></path><path d="m372.364 58.189h-162.909c-6.423 0-11.636 5.213-11.636 11.636s5.213 11.636 11.636 11.636h162.909c6.435 0 11.636-5.213 11.636-11.636s-5.201-11.636-11.636-11.636z"></path><circle cx="69.818" cy="302.553" r="11.636"></circle><circle cx="116.364" cy="302.553" r="11.636"></circle><path d="m325.818 290.917h-116.363c-6.423 0-11.636 5.213-11.636 11.636s5.213 11.636 11.636 11.636h116.364c6.435 0 11.636-5.213 11.636-11.636s-5.202-11.636-11.637-11.636z"></path><circle cx="69.818" cy="186.189" r="11.636"></circle><circle cx="116.364" cy="186.189" r="11.636"></circle><path d="m372.364 174.553h-162.909c-6.423 0-11.636 5.213-11.636 11.636s5.213 11.636 11.636 11.636h162.909c6.435 0 11.636-5.213 11.636-11.636s-5.201-11.636-11.636-11.636z"></path><path d="m430.545 93.098c6.435 0 11.636-5.213 11.636-11.636v-46.545c0-19.247-15.663-34.909-34.909-34.909h-372.363c-19.246-.001-34.909 15.662-34.909 34.909v93.091.012 69.807c0 6.423 5.213 11.636 11.636 11.636s11.636-5.213 11.636-11.636v-58.17l395.636-.012v93.091l-407.273.012c-6.422-.002-11.635 5.211-11.635 11.635v93.079c0 19.247 15.663 34.909 34.909 34.909h232.727c6.423 0 11.636-5.213 11.636-11.636s-5.213-11.636-11.636-11.636h-232.727c-6.412 0-11.636-5.225-11.636-11.636v-81.443l395.636-.012v46.545c0 6.423 5.201 11.636 11.636 11.636s11.636-5.213 11.636-11.636v-58.182-116.364c0-3.084-1.222-6.051-3.409-8.227-2.188-2.176-5.132-3.409-8.227-3.409l-407.273.012v-81.466c0-6.412 5.225-11.636 11.636-11.636h372.364c6.423 0 11.636 5.225 11.636 11.636v46.545c.001 6.423 5.203 11.636 11.637 11.636z"></path><path d="m459.811 414.553c9.367 0 18.723-3.561 25.856-10.682.012-.012.023-.035.035-.058.012-.012.012-.012.023-.012l22.935-23.273c4.515-4.573 4.468-11.939-.116-16.454-4.596-4.515-11.951-4.468-16.454.128l-22.842 23.18c-.012.012-.023.012-.035.023-5.178 5.178-13.615 5.178-18.793 0-2.513-2.502-3.898-5.841-3.898-9.391 0-3.549 1.385-6.889 3.898-9.391l23.215-22.877c4.585-4.515 4.62-11.881.116-16.454-4.492-4.585-11.857-4.62-16.454-.128l-23.273 22.935c-.012.012-.012.023-.023.035-.012.012-.023.012-.035.023-6.912 6.912-10.717 16.093-10.717 25.856 0 5.737 1.455 11.194 3.933 16.175l-15.139 15.139c-3.584-1.28-7.389-1.827-11.194-1.676l-23.668-23.645 15.046-15.046c4.55-4.55 4.55-11.904 0-16.454l-23.273-23.273c-4.55-4.55-11.904-4.55-16.454 0l-46.545 46.545c-3.119 3.119-4.201 7.727-2.804 11.904l11.636 34.909c1.268 3.828 4.433 6.714 8.367 7.645.884.209 1.78.314 2.665.314 3.049 0 6.028-1.199 8.227-3.409l26.682-26.682 18.164 18.164-44.719 44.719c-5.388 5.388-8.355 12.544-8.355 20.154s2.967 14.778 8.355 20.154c5.388 5.388 12.544 8.355 20.154 8.355s14.778-2.967 20.143-8.355l44.73-44.719 49.664 49.664c2.269 2.269 5.248 3.409 8.227 3.409s5.958-1.14 8.227-3.409c4.55-4.55 4.55-11.904 0-16.454l-54.912-54.912c.023-.489.14-.954.14-1.455 0-3.526-.698-6.935-1.92-10.135l15.023-15.023c5.096 2.529 10.6 3.937 16.162 3.937zm-107.299-38.773s0 0-.012 0 0 0 0 .012l-21.597 21.585-3.409-10.228 33.233-33.233 6.819 6.819zm53.225 63.71-47.732 47.721c-1.315 1.327-2.862 1.524-3.677 1.524s-2.362-.198-3.7-1.536c-1.327-1.338-1.536-2.897-1.536-3.7 0-.815.209-2.374 1.536-3.7l47.732-47.721c1.315-1.326 2.862-1.524 3.677-1.524s2.362.198 3.7 1.536c1.327 1.327 1.536 2.886 1.536 3.689 0 .813-.21 2.372-1.536 3.711z"></path></g></svg>