<svg viewBox="0 0 31.891 31.891" xmlns="http://www.w3.org/2000/svg"><g fill="#a6c1ee"><path d="m30.543 5.74-4.078-4.035c-1.805-1.777-4.736-1.789-6.545-.02l-4.525 4.414c-1.812 1.768-1.82 4.648-.02 6.424l2.586-2.484c-.262-.791.061-1.697.701-2.324l2.879-2.807c.912-.885 2.375-.881 3.275.01l2.449 2.42c.9.891.896 2.326-.01 3.213l-2.879 2.809c-.609.594-1.609.92-2.385.711l-2.533 2.486c1.803 1.781 4.732 1.789 6.545.02l4.52-4.41c1.817-1.771 1.823-4.648.02-6.427z"></path><path d="m13.975 21.894c.215.773-.129 1.773-.752 2.381l-2.689 2.627c-.922.9-2.414.895-3.332-.012l-2.498-2.461c-.916-.906-.91-2.379.012-3.275l2.691-2.627c.656-.637 1.598-.961 2.42-.689l2.594-2.57c-1.836-1.811-4.824-1.82-6.668-.02l-4.363 4.26c-1.846 1.803-1.855 4.734-.02 6.549l4.154 4.107c1.834 1.809 4.82 1.818 6.668.018l4.363-4.26c1.844-1.805 1.852-4.734.02-6.547z"></path><path d="m11.139 20.722c.611.617 1.611.623 2.234.008l7.455-7.416c.621-.617.625-1.615.008-2.234-.613-.615-1.611-.619-2.23-.006l-7.457 7.414c-.62.615-.624 1.613-.01 2.234z"></path></g></svg>