<svg fill="none" height="800" viewBox="0 0 24 24" width="800" xmlns="http://www.w3.org/2000/svg"><g transform="translate(-1.236639 -1.278621)"><path clip-rule="evenodd" d="m6 8a1 1 0 0 0 1-1v-1.077c0-.459.022-.57.082-.684a.364.364 0 0 1 .157-.157c.113-.06.225-.082.684-.082h10.154c.459 0 .57.022.684.082.07.038.12.087.157.157.06.113.082.225.082.684v12.154c0 .459-.022.57-.082.684a.363.363 0 0 1 -.157.157c-.113.06-.225.082-.684.082h-10.154c-.459 0-.57-.022-.684-.082a.363.363 0 0 1 -.157-.157c-.06-.113-.082-.225-.082-.684v-1.077a1 1 0 1 0 -2 0v1.077c0 .76.082 1.185.319 1.627.223.419.558.753.977.977.442.237.866.319 1.627.319h10.154c.76 0 1.185-.082 1.627-.319.419-.224.753-.558.977-.977.237-.442.319-.866.319-1.627v-12.154c0-.76-.082-1.185-.319-1.627a2.363 2.363 0 0 0 -.977-.977c-.442-.237-.866-.319-1.627-.319h-10.154c-.76 0-1.185.082-1.627.319a2.363 2.363 0 0 0 -.978.977c-.235.442-.318.866-.318 1.627v1.077a1 1 0 0 0 1 1zm9.593 2.943c.584.585.584 1.53 0 2.116l-2.883 2.891c-.39.39-1.03.39-1.42 0a.996.996 0 0 1 0-1.41 9.552 9.552 0 0 1 1.689-1.345l.387-.242-.207-.206a10 10 0 0 1 -2.24.254h-7.921a1 1 0 1 1 0-2h7.921a10 10 0 0 1 2.24.254l.207-.206-.386-.241a9.562 9.562 0 0 1 -1.69-1.348.996.996 0 0 1 0-1.41c.39-.39 1.03-.39 1.42 0z" fill="#0060df" fill-rule="evenodd"/><g transform="matrix(.56777202 0 0 .56777202 26.354493 10.171433)"><path d="m27.9883 51.2969c.375 0 .9609-.1407 1.5703-.4453 13.1016-7.3828 17.625-10.4766 17.625-18.8907v-17.6718c0-2.4141-1.0547-3.1875-3-4.0078-2.7422-1.1251-11.5312-4.2891-14.25-5.25-.6328-.1875-1.2656-.3282-1.9453-.3282-.6563 0-1.2891.1407-1.9219.3282-2.7188.9843-11.5078 4.1484-14.25 5.25-1.9453.7968-3 1.5937-3 4.0078v17.6718c0 8.4141 4.5469 11.4844 17.625 18.8907.6094.3046 1.1719.4453 1.5469.4453z" fill="#0060df" stroke="#234d97" transform="matrix(.42857143 0 0 .42857143 -23.745634 1.377357)"/><path d="m-7.718134 12.304857c-.072-.072-.171-.114-.276-.114h-9.522c-.174 0-.261.21-.138.333l1.881 1.881c.072.072.171.114.276.114h9.522c.174 0 .261-.21.138-.333zm-8.055-3.4890001c.075-.072.174-.114.276-.114h9.522c.174 0 .261.21.138.333l-1.881 1.8810001c-.072.072-.171.114-.276.114h-9.522c-.174 0-.261-.21-.138-.333zm0 7.0230001c.072-.072.171-.114.276-.114h9.522c.174 0 .261.21.138.333l-1.881 1.881c-.072.072-.171.114-.276.114h-9.522c-.174 0-.261-.21-.138-.333z" fill="none"/></g></g></svg>