<svg viewBox="0 0 512 512" xmlns="http://www.w3.org/2000/svg"><g fill="#a6c1ee"><circle cx="104.727" cy="69.818" r="11.636"></circle><circle cx="151.273" cy="69.818" r="11.636"></circle><path d="m395.636 465.455h-71.959c-4.817-13.51-17.617-23.273-32.768-23.273h-23.273v-34.909c0-6.423-5.213-11.636-11.636-11.636s-11.636 5.213-11.636 11.636v34.909h-23.273c-15.151 0-27.951 9.763-32.768 23.273h-71.959c-6.423 0-11.636 5.213-11.636 11.636s5.213 11.636 11.636 11.636h71.959c4.817 13.51 17.617 23.273 32.768 23.273h69.818c15.151 0 27.951-9.763 32.768-23.273h71.959c6.435 0 11.636-5.213 11.636-11.636.001-6.423-5.201-11.636-11.636-11.636zm-104.727 23.272h-69.818c-6.412 0-11.636-5.225-11.636-11.636s5.225-11.636 11.636-11.636h69.818c6.412 0 11.636 5.225 11.636 11.636s-5.224 11.636-11.636 11.636z"></path><path d="m244.364 58.182c-6.423 0-11.636 5.213-11.636 11.636s5.213 11.636 11.636 11.636h162.909c6.435 0 11.636-5.213 11.636-11.636s-5.201-11.636-11.636-11.636z"></path><circle cx="104.727" cy="302.545" r="11.636"></circle><circle cx="151.273" cy="302.545" r="11.636"></circle><path d="m244.364 290.909c-6.423 0-11.636 5.213-11.636 11.636s5.213 11.636 11.636 11.636h162.909c6.435 0 11.636-5.213 11.636-11.636s-5.201-11.636-11.636-11.636z"></path><circle cx="104.727" cy="186.182" r="11.636"></circle><circle cx="151.273" cy="186.182" r="11.636"></circle><path d="m407.273 197.818c6.435 0 11.636-5.213 11.636-11.636s-5.201-11.636-11.636-11.636h-162.909c-6.423 0-11.636 5.213-11.636 11.636s5.213 11.636 11.636 11.636z"></path><path d="m465.455 93.091c6.435 0 11.636-5.213 11.636-11.636v-46.546c0-19.246-15.663-34.909-34.909-34.909h-372.364c-19.246 0-34.909 15.663-34.909 34.909v93.091.012 69.807c0 6.423 5.213 11.636 11.636 11.636s11.636-5.213 11.636-11.636v-58.17l395.636-.012v93.091l-407.273.012c-6.423 0-11.636 5.213-11.636 11.636v93.079c0 19.247 15.663 34.909 34.909 34.909l372.364-.012c19.247 0 34.909-15.663 34.909-34.909v-46.534c0-6.423-5.201-11.636-11.636-11.636s-11.636 5.213-11.636 11.636v46.534c0 6.412-5.213 11.636-11.636 11.636l-372.364.012c-6.412 0-11.636-5.225-11.636-11.636v-81.443l407.273-.012c6.435 0 11.636-5.213 11.636-11.636v-116.364c0-3.084-1.222-6.051-3.409-8.227-2.188-2.176-5.132-3.409-8.227-3.409l-407.273.012v-81.467c0-6.412 5.225-11.636 11.636-11.636h372.364c6.423 0 11.636 5.225 11.636 11.636v46.545c0 6.424 5.202 11.637 11.637 11.637z"></path></g></svg>